<svg width="37" height="34" viewBox="0 0 37 34" fill="none" xmlns="http://www.w3.org/2000/svg">
    <g filter="url(#filter0_f_208_517)">
        <path
            d="M4.1665 13.5588V25C4.1665 27.2091 5.95737 29 8.1665 29H28.1665C30.3756 29 32.1665 27.2091 32.1665 25V13.5588L20.2629 20.8841C18.9773 21.6752 17.3557 21.6753 16.0701 20.8841L4.1665 13.5588Z"
            fill="#1A0809" fill-opacity="0.25" />
        <path
            d="M32.1665 11.2104V11C32.1665 8.79086 30.3756 7 28.1665 7H8.1665C5.95737 7 4.1665 8.79086 4.1665 11V11.2104L17.1183 19.1808C17.7611 19.5764 18.5719 19.5764 19.2147 19.1808L32.1665 11.2104Z"
            fill="#1A0809" fill-opacity="0.25" />
    </g>
    <path
        d="M6.1665 11.5588V23C6.1665 25.2091 7.95737 27 10.1665 27H30.1665C32.3756 27 34.1665 25.2091 34.1665 23V11.5588L22.2629 18.8841C20.9773 19.6752 19.3557 19.6753 18.0701 18.8841L6.1665 11.5588Z"
        fill="#CC1F2A" />
    <path
        d="M34.1665 9.21044V9C34.1665 6.79086 32.3756 5 30.1665 5H10.1665C7.95737 5 6.1665 6.79086 6.1665 9V9.21044L19.1183 17.1808C19.7611 17.5764 20.5719 17.5764 21.2147 17.1808L34.1665 9.21044Z"
        fill="#CC1F2A" />
    <defs>
        <filter id="filter0_f_208_517" x="-1.8335" y="-2" width="40" height="40" filterUnits="userSpaceOnUse"
            color-interpolation-filters="sRGB">
            <feFlood flood-opacity="0" result="BackgroundImageFix" />
            <feBlend mode="normal" in="SourceGraphic" in2="BackgroundImageFix" result="shape" />
            <feGaussianBlur stdDeviation="2" result="effect1_foregroundBlur_208_517" />
        </filter>
    </defs>
</svg>