<svg width="35" height="36" viewBox="0 0 35 36" fill="none" xmlns="http://www.w3.org/2000/svg">
    <g filter="url(#filter0_f_208_509)">
        <path fill-rule="evenodd" clip-rule="evenodd"
            d="M15.5528 31.8014C15.5931 31.8247 15.6248 31.8427 15.6472 31.8554L15.6844 31.8761C15.9816 32.0393 16.3502 32.038 16.6476 31.8767L16.6858 31.8554C16.7082 31.8427 16.7399 31.8247 16.7802 31.8014C16.8607 31.7547 16.9758 31.6867 17.1205 31.5976C17.4098 31.4195 17.8182 31.1568 18.306 30.8122C19.28 30.1241 20.5795 29.1033 21.8819 27.7698C24.4741 25.1158 27.1665 21.1282 27.1665 16C27.1665 9.92487 22.2416 5 16.1665 5C10.0914 5 5.1665 9.92487 5.1665 16C5.1665 21.1282 7.85894 25.1158 10.4511 27.7698C11.7535 29.1033 13.0531 30.1241 14.027 30.8122C14.5148 31.1568 14.9232 31.4195 15.2125 31.5976C15.3572 31.6867 15.4723 31.7547 15.5528 31.8014ZM16.1665 20C18.3756 20 20.1665 18.2091 20.1665 16C20.1665 13.7909 18.3756 12 16.1665 12C13.9574 12 12.1665 13.7909 12.1665 16C12.1665 18.2091 13.9574 20 16.1665 20Z"
            fill="#1A0809" fill-opacity="0.25" />
    </g>
    <path fill-rule="evenodd" clip-rule="evenodd"
        d="M17.5528 29.8014C17.5931 29.8247 17.6248 29.8427 17.6472 29.8554L17.6844 29.8761C17.9816 30.0393 18.3502 30.038 18.6476 29.8767L18.6858 29.8554C18.7082 29.8427 18.7399 29.8247 18.7802 29.8014C18.8607 29.7547 18.9758 29.6867 19.1205 29.5976C19.4098 29.4195 19.8182 29.1568 20.306 28.8122C21.28 28.1241 22.5795 27.1033 23.8819 25.7698C26.4741 23.1158 29.1665 19.1282 29.1665 14C29.1665 7.92487 24.2416 3 18.1665 3C12.0914 3 7.1665 7.92487 7.1665 14C7.1665 19.1282 9.85894 23.1158 12.4511 25.7698C13.7535 27.1033 15.0531 28.1241 16.027 28.8122C16.5148 29.1568 16.9232 29.4195 17.2125 29.5976C17.3572 29.6867 17.4723 29.7547 17.5528 29.8014ZM18.1665 18C20.3756 18 22.1665 16.2091 22.1665 14C22.1665 11.7909 20.3756 10 18.1665 10C15.9574 10 14.1665 11.7909 14.1665 14C14.1665 16.2091 15.9574 18 18.1665 18Z"
        fill="#CC1F2A" />
    <defs>
        <filter id="filter0_f_208_509" x="-3.8335" y="-2" width="40" height="40" filterUnits="userSpaceOnUse"
            color-interpolation-filters="sRGB">
            <feFlood flood-opacity="0" result="BackgroundImageFix" />
            <feBlend mode="normal" in="SourceGraphic" in2="BackgroundImageFix" result="shape" />
            <feGaussianBlur stdDeviation="2" result="effect1_foregroundBlur_208_509" />
        </filter>
    </defs>
</svg>