<svg width="37" height="36" viewBox="0 0 37 36" fill="none" xmlns="http://www.w3.org/2000/svg">
    <g filter="url(#filter0_f_208_525)">
        <path fill-rule="evenodd" clip-rule="evenodd"
            d="M4.1665 8C4.1665 5.79086 5.95737 4 8.1665 4H9.99534C11.1425 4 12.1425 4.78074 12.4207 5.89366L13.8951 11.7912C14.139 12.7671 13.7744 13.7941 12.9697 14.3976L11.2449 15.6912C11.0658 15.8255 11.0269 16.0222 11.0772 16.1596C12.5912 20.2926 15.8739 23.5753 20.0069 25.0893C20.1443 25.1396 20.341 25.1007 20.4753 24.9216L21.7689 23.1968C22.3724 22.3921 23.3994 22.0275 24.3753 22.2714L30.2728 23.7458C31.3858 24.024 32.1665 25.024 32.1665 26.1712V28C32.1665 30.2091 30.3756 32 28.1665 32H25.1665C13.5685 32 4.1665 22.598 4.1665 11V8Z"
            fill="#1A0809" fill-opacity="0.25" />
    </g>
    <path fill-rule="evenodd" clip-rule="evenodd"
        d="M6.1665 6C6.1665 3.79086 7.95737 2 10.1665 2H11.9953C13.1425 2 14.1425 2.78074 14.4207 3.89366L15.8951 9.79124C16.139 10.7671 15.7744 11.7941 14.9697 12.3976L13.2449 13.6912C13.0658 13.8255 13.0269 14.0222 13.0772 14.1596C14.5912 18.2926 17.8739 21.5753 22.0069 23.0893C22.1443 23.1396 22.341 23.1007 22.4753 22.9216L23.7689 21.1968C24.3724 20.3921 25.3994 20.0275 26.3753 20.2714L32.2728 21.7458C33.3858 22.024 34.1665 23.024 34.1665 24.1712V26C34.1665 28.2091 32.3756 30 30.1665 30H27.1665C15.5685 30 6.1665 20.598 6.1665 9V6Z"
        fill="#CC1F2A" />
    <defs>
        <filter id="filter0_f_208_525" x="-1.8335" y="-2" width="40" height="40" filterUnits="userSpaceOnUse"
            color-interpolation-filters="sRGB">
            <feFlood flood-opacity="0" result="BackgroundImageFix" />
            <feBlend mode="normal" in="SourceGraphic" in2="BackgroundImageFix" result="shape" />
            <feGaussianBlur stdDeviation="2" result="effect1_foregroundBlur_208_525" />
        </filter>
    </defs>
</svg>